<?xml version="1.0" standalone="no"?>
<!DOCTYPE svg PUBLIC "-//W3C//DTD SVG 20010904//EN"
 "http://www.w3.org/TR/2001/REC-SVG-20010904/DTD/svg10.dtd">
<svg version="1.0" xmlns="http://www.w3.org/2000/svg"
 width="512.000000pt" height="512.000000pt" viewBox="0 0 512.000000 512.000000"
 preserveAspectRatio="xMidYMid meet">

<g transform="translate(0.000000,512.000000) scale(0.100000,-0.100000)"
fill="#000000" stroke="none">
<path d="M2615 4291 c-17 -4 -40 -13 -50 -20 -18 -10 -16 -11 13 -6 35 7 44
-8 14 -24 -13 -7 -37 -4 -83 11 -77 24 -198 29 -223 9 -23 -19 -14 -24 19 -11
22 8 41 7 82 -6 29 -9 53 -20 53 -24 0 -4 -11 -15 -24 -24 -22 -14 -29 -14
-67 -1 -66 24 -131 20 -163 -9 -23 -22 -30 -24 -56 -14 -21 7 -39 7 -58 0 -15
-6 -47 -13 -72 -17 -45 -6 -143 -56 -157 -79 -5 -7 -35 -18 -67 -24 -87 -17
-188 -82 -128 -82 11 0 6 -7 -15 -20 -18 -11 -33 -22 -33 -24 0 -2 18 -2 40 1
27 4 47 0 65 -11 32 -21 33 -39 2 -27 -23 9 -42 4 -170 -45 -33 -13 -50 -26
-53 -41 -4 -13 -12 -23 -20 -23 -8 0 -19 -9 -26 -20 -9 -14 -24 -20 -50 -20
-20 0 -40 -5 -44 -12 -4 -7 -3 -8 5 -4 14 9 51 -2 51 -15 0 -5 -13 -9 -29 -9
-28 0 -81 -33 -81 -51 0 -5 11 -2 25 7 16 10 34 14 51 10 l27 -7 -23 -25 c-21
-21 -32 -24 -96 -24 -53 0 -75 -4 -85 -16 -11 -13 -10 -15 6 -12 23 4 28 -12
10 -35 -11 -15 -17 -16 -34 -8 -11 6 -37 11 -58 10 -33 0 -35 -2 -16 -9 14 -6
21 -15 17 -24 -3 -8 0 -17 6 -21 7 -5 2 -12 -15 -21 -25 -13 -30 -12 -57 11
-39 33 -61 32 -25 0 30 -29 35 -40 12 -32 -11 5 -12 1 -4 -19 17 -46 -17 -62
-45 -22 -12 17 -16 18 -16 6 0 -8 7 -21 16 -29 14 -11 9 -16 -36 -36 -28 -12
-49 -27 -45 -33 3 -5 0 -7 -8 -4 -19 7 -30 -11 -31 -50 -1 -29 -4 -31 -46 -36
-25 -3 -51 -9 -57 -13 -18 -11 -16 -28 2 -21 18 7 44 -12 55 -41 6 -16 1 -24
-29 -40 -23 -13 -37 -29 -40 -45 l-3 -25 23 20 c22 20 22 20 16 0 -3 -11 -13
-40 -22 -65 -21 -57 -16 -159 11 -215 18 -37 19 -43 5 -85 -21 -62 -18 -532 5
-710 24 -195 60 -396 104 -589 40 -174 131 -504 137 -498 1 2 -4 82 -12 178
-8 96 -23 303 -35 462 -19 264 -19 290 -4 318 17 34 91 73 159 84 l40 6 23
352 c17 252 27 358 37 374 31 47 208 112 410 149 86 16 137 18 370 14 307 -5
520 -5 850 0 328 5 545 -25 805 -110 181 -59 232 -86 243 -130 9 -33 -5 -376
-22 -556 l-7 -74 37 0 c40 0 88 -31 153 -98 48 -50 53 -77 61 -336 4 -105 8
-229 10 -276 2 -47 4 -148 4 -224 1 -77 3 -137 6 -134 4 4 94 682 96 727 0 10
2 11 6 4 13 -35 18 1 19 150 1 174 16 374 40 501 15 83 18 256 5 344 -12 84 8
44 28 -54 9 -49 19 -82 22 -74 3 8 2 73 -3 143 -6 93 -15 148 -33 203 -29 87
-31 105 -5 49 28 -61 24 -26 -9 64 -27 78 -28 84 -15 139 39 163 -10 330 -137
467 -31 33 -61 76 -68 96 -18 56 -79 101 -179 134 -58 19 -60 24 -11 34 l32 6
-51 28 c-36 20 -64 27 -103 27 -39 0 -50 3 -39 10 8 5 29 10 45 11 54 1 -82
48 -142 48 -45 1 -58 -4 -87 -30 l-35 -30 -38 30 c-21 17 -67 42 -103 57 -51
21 -84 45 -156 114 -86 83 -155 129 -216 144 -15 3 -30 2 -33 -4 -3 -5 0 -10
8 -10 15 0 111 -80 104 -86 -2 -3 -35 14 -73 37 -89 55 -161 83 -256 103 -83
17 -106 18 -153 7z m-1705 -1032 c0 -5 -4 -9 -10 -9 -5 0 -10 7 -10 16 0 8 5
12 10 9 6 -3 10 -10 10 -16z m3414 -424 c3 -8 1 -15 -4 -15 -6 0 -10 7 -10 15
0 8 2 15 4 15 2 0 6 -7 10 -15z"/>
<path d="M1515 1853 c-100 -12 -300 -46 -360 -61 -54 -14 -73 -24 -83 -43 -17
-33 -8 -96 17 -123 28 -30 41 -77 41 -152 0 -67 8 -80 55 -86 l29 -3 18 -133
c20 -154 43 -216 109 -280 95 -96 244 -144 444 -144 150 0 247 21 348 74 177
95 277 293 277 549 0 69 3 89 14 89 7 0 25 9 39 20 20 16 40 20 97 20 57 0 77
-4 97 -20 14 -11 32 -20 39 -20 11 0 14 -20 14 -89 0 -257 105 -463 282 -552
102 -52 196 -71 343 -71 200 0 349 48 444 144 66 64 89 126 109 280 l18 133
29 3 c47 6 55 19 55 86 0 75 13 122 41 152 25 27 34 90 17 123 -15 29 -78 47
-283 83 -113 20 -164 23 -400 23 -244 0 -279 -3 -364 -23 -132 -31 -208 -69
-283 -141 l-63 -61 -95 0 -95 0 -64 61 c-35 33 -85 71 -112 84 -55 28 -173 60
-274 75 -65 9 -432 12 -500 3z m561 -83 c114 -22 196 -61 255 -120 38 -38 47
-54 52 -94 27 -193 -29 -406 -135 -522 -93 -102 -213 -157 -382 -174 -265 -27
-483 57 -566 220 -37 72 -80 303 -59 316 5 3 9 44 9 92 0 101 19 152 70 195
81 69 183 97 375 106 181 8 269 4 381 -19z m1394 15 c154 -7 254 -38 330 -102
51 -43 70 -94 70 -195 0 -48 4 -89 9 -92 21 -13 -22 -244 -59 -316 -83 -163
-301 -247 -566 -220 -169 17 -289 72 -382 174 -106 116 -162 329 -135 522 12
89 124 173 280 210 77 18 224 32 298 27 28 -1 97 -5 155 -8z m-2258 -119 c-15
-17 -28 -33 -30 -35 -1 -3 -18 11 -37 29 l-35 34 32 33 32 33 33 -32 33 -32
-28 -30z m2753 -5 l-35 -36 -32 33 -32 32 34 35 34 35 33 -32 33 -32 -35 -35z"/>
</g>
</svg>
